# xmcd
#
# Track frame offsets:
#	150
#	10532
#	21232
#	35044
#	56373
#	70042
#	97363
#	108563
#	125351
#	144548
#	157770
#	173530
#	195960
#	216738
#	239063
#	251690
#
# Disc length: 3511 seconds
#
# Revision: 1
# Processed by: cddbd v1.5.2PL0 Copyright (c) Steve Scherf et al.
# Submitted via: audiograbber 1.83.01
#
DISCID=df0db510
DTITLE=On the Other Side of the Tracks - Matthew Ford
DYEAR=2007
DGENRE=
TTITLE0=On the Other of the Tracks
TTITLE1=Just One of Those Things
TTITLE2=I'm Beginning to See the Light
TTITLE3=Have You Met Miss Jones
TTITLE4=Like Young
TTITLE5=What are You Doing the Rest of Your Life
TTITLE6=I Don't Care, Only Love Me
TTITLE7=Besame Mucho
TTITLE8=Meditation
TTITLE9=The Best Man
TTITLE10=Hello Young Lovers
TTITLE11=At Last
TTITLE12=If Ever I Would Leave You
TTITLE13=My Funny Valentine
TTITLE14=Windmilss of Your Mind
TTITLE15=That's All
EXTD=
EXTT0=
EXTT1=
EXTT2=
EXTT3=
EXTT4=
EXTT5=
EXTT6=
EXTT7=
EXTT8=
EXTT9=
EXTT10=
EXTT11=
EXTT12=
EXTT13=
EXTT14=
EXTT15=
PLAYORDER=
